PathFileType	4	(X/Y/Z)	RBDS04\RBDS04runT35.trc
DataRate	CameraRate	NumFrames	NumMarkers	Units	OrigDataRate	OrigDataStartFrame	OrigNumFrames
150.000000	150.000000	4	33	mm	150.000000	2250	4500
Frame#	Time	L.ASIS			L.Heel.Bottom			L.Heel.Lateral			L.Heel.Top			L.Iliac.Crest			L.MT1			L.MT5			L.PSIS			L.Shank.Bottom.Lateral			L.Shank.Bottom.Medial			L.Shank.Top.Lateral			L.Shank.Top.Medial			L.Thigh.Bottom.Lateral			L.Thigh.Bottom.Medial			L.Thigh.Top.Lateral			L.Thigh.Top.Medial			R.ASIS			R.ASY			R.Heel.Bottom			R.Heel.Lateral			R.Heel.Top			R.Iliac.Crest			R.MT1			R.MT5			R.PSIS			R.Shank.Bottom.Lateral			R.Shank.Bottom.Medial			R.Shank.Top.Lateral			R.Shank.Top.Medial			R.Thigh.Bottom.Lateral			R.Thigh.Bottom.Medial			R.Thigh.Top.Lateral			R.Thigh.Top.Medial			
		X1	Y1	Z1	X2	Y2	Z2	X3	Y3	Z3	X4	Y4	Z4	X5	Y5	Z5	X6	Y6	Z6	X7	Y7	Z7	X8	Y8	Z8	X9	Y9	Z9	X10	Y10	Z10	X11	Y11	Z11	X12	Y12	Z12	X13	Y13	Z13	X14	Y14	Z14	X15	Y15	Z15	X16	Y16	Z16	X17	Y17	Z17	X18	Y18	Z18	X19	Y19	Z19	X20	Y20	Z20	X21	Y21	Z21	X22	Y22	Z22	X23	Y23	Z23	X24	Y24	Z24	X25	Y25	Z25	X26	Y26	Z26	X27	Y27	Z27	X28	Y28	Z28	X29	Y29	Z29	X30	Y30	Z30	X31	Y31	Z31	X32	Y32	Z32	X33	Y33	Z33	

2251	15	2277.110599041923	895.2482533885238	906.0712673881263	1847.699214259772	500.0668684094973	939.9902323109054	1855.895843353971	462.4988996558839	900.7117338475825	1890.517423183957	481.5033481108991	941.5601040260844	2221.732999024974	958.0179452765882	852.8961778903385	1827.97243656946	288.1300272456157	988.7628236196516	1812.886453953525	315.9981232816025	891.1686374292748	2110.726830065313	933.5846669646613	950.7091733054988	1972.255958473813	418.123125255306	889.6525366131045	1969.796616038728	461.6559327419579	916.2390287150878	2051.978554289381	426.633272400827	877.5510353120698	2053.42249848806	471.6863103260764	905.9621485798438	2271.558700263374	534.2460471467011	843.0414432325163	2211.107825266008	518.5973458358434	881.023435394318	2233.503703599795	636.7953248939772	829.3060409467345	2175.995131257219	622.1344684036537	864.1884076248419	2266.633197392872	909.3843205156995	1097.30136440386	2225.284367941656	80.63676689684971	1024.594823949701	2051.706481663734	33.57637489685036	1020.600085868969	2083.293219529904	49.55498344026233	1061.511207148862	2063.514647659363	78.17113152910601	1019.456649287128	2197.309688938253	953.1926493882589	1142.643286833478	2267.08892815337	48.14369103997358	994.0630917040756	2233.930725191706	42.04845979726728	1089.789061344433	2106.309433043735	941.3380773919599	1033.894816943023	2165.351076566516	153.5783020445392	1078.559551981137	2127.626833680912	178.6063205687879	1048.117384739703	2192.375156501926	227.0572492575859	1101.993334705088	2156.96116112213	250.7125274896313	1068.346481681576	2275.874930631928	540.8630867406456	1143.676438170428	2222.733371384276	525.5405305998344	1094.926191257054	2227.438753342664	638.614647570539	1163.441917216656	2174.439657149978	621.7398083342875	1119.997247474643	
2252	15.00666666666667	2275.645003697205	894.9711875405716	906.4240956888208	1859.61321695429	495.317471409906	937.1333478910587	1869.929630200766	457.464484206846	898.4717701956307	1903.069238628202	478.0712832054637	939.5623251670162	2219.521494996559	957.5095520597415	853.2426781795961	1846.828448965293	283.3260900679962	988.4416749813394	1832.575116966783	309.3132815799452	890.2032875226221	2109.260224662422	933.6796075510658	951.1704264102722	1987.539955597038	416.0397159380699	888.7368006488728	1984.258406449065	459.7082308449889	914.9984997049495	2067.1236329584	425.8596797847301	876.8074395793266	2067.689444757234	471.1232420309836	904.9117775594267	2282.028829772115	537.5525723923796	842.0487846379386	2222.193086686298	519.2562704367592	879.8132003793094	2239.852860971617	638.5391198184499	828.7312815149684	2182.856183207742	621.355359770646	863.3002176847363	2265.201039871363	908.1425723274649	1097.668848388962	2201.825012238811	80.72844767931031	1024.850169282251	2028.31268421606	34.08400795103191	1020.636810627332	2059.999685742788	49.91933468975557	1061.560269976176	2040.19507276978	78.62498493682124	1019.61311049598	2195.742675072565	952.4062940431594	1143.074193939215	2243.359167236616	48.43088544305776	994.3720954496057	2210.390590347949	41.99610825586442	1089.809873204708	2105.028473568836	941.277363843295	1034.301932777974	2143.99636795414	153.6418239313776	1078.696397060624	2106.959449983454	179.7075537560974	1048.386732743749	2173.19510553357	226.2668185872174	1102.088232141691	2138.372447762283	250.8744486799797	1068.535754051609	2265.459740833063	537.7424150469134	1143.869467242307	2211.398504907451	523.6975104194114	1095.707987306813	2219.777403661345	636.8571912075306	1163.649599241946	2166.239958454893	621.4189986052306	1120.40589924358	
2253	15.01333333333333	2274.442659788265	895.5332347043876	906.8289100450996	1871.035558072088	489.1991310453494	934.6539035411587	1883.580098195413	451.2848322114745	896.5133281369677	1915.15267313149	473.5124677659968	937.6754829265997	2217.749507722061	957.9298469635788	853.7381452457716	1866.250346728603	277.2981695631036	988.1444470700915	1852.586075259565	301.544438836727	889.4092076556926	2108.078298129895	934.4609661839339	951.7053214375885	2002.552566268461	413.4063147113589	887.8886677811149	1998.180180142181	457.1821907831648	913.7768907947302	2081.889619768756	425.0163959997922	876.087803892359	2081.301403370324	470.4731673364709	903.8630710675146	2292.272820988363	542.0763117315385	841.0410711949988	2233.134210268624	521.1848313078114	878.5517218586496	2246.107770578956	641.3711751239765	828.1032676185176	2189.691521528026	621.7168084051119	862.3348406278931	2264.019719079874	907.4024834976666	1098.10381493667	2178.296790196706	80.87554453789726	1025.394756756267	2004.843974868963	34.87467746493281	1020.713790346858	2036.613686478843	50.46266442029403	1061.696095725984	2016.859641620999	79.36444350708237	1019.884165703942	2194.725406756432	952.4431536748248	1143.536790527031	2219.647840262526	48.58012729024793	994.6985042884622	2186.793248084974	41.80305628778566	1089.848368213117	2104.032812077794	941.7785938955103	1034.845405381375	2122.27050643849	154.0525483571619	1078.959003441157	2085.924181793627	181.0282663018301	1048.700173772168	2153.385191069455	225.8585185472311	1102.26937351939	2119.15272282892	251.2887493268961	1068.750084769051	2254.353854455139	535.2227927938513	1144.048285365618	2199.256745515867	522.5552210022247	1096.660757834406	2211.777952237729	635.7505397711622	1163.83781875226	2157.594194382903	621.8706669866369	1120.939937997611	
2254	15.02	2273.550484909059	896.9225749195186	907.3326864454799	1882.033742576246	481.6948932481203	932.5833971473432	1896.87890594598	443.9915412695335	894.8535857911395	1926.811064372121	467.8225826600508	935.9497648865195	2216.440281846159	959.2026315979637	854.3667390049471	1886.219530849672	270.1466896434573	987.8501637604553	1872.893069548753	292.8300829214189	888.764078528478	2107.204265634912	935.8940589553134	952.3038853689682	2017.267276348914	410.2133667609188	887.129028805821	2011.550863657669	454.0526377708661	912.5951651002333	2096.226360618803	424.0608795592303	875.399275183478	2094.223678210765	469.6766972197386	902.8235490139562	2302.212775681195	547.7207746178333	840.0420177917626	2243.815210033221	524.3167798793233	877.2275965752137	2252.248741539791	645.2298968463114	827.4350324049835	2196.457048626082	623.1880513989468	861.2811142481725	2263.110727048313	907.1641410087535	1098.645075426575	2154.738929996191	81.13700731016223	1026.184688466365	1981.301646350373	36.1184120744382	1020.848950825027	2013.153027812809	51.33607084570536	1061.92760799761	1993.540368581367	80.55122576139297	1020.28059670931	2194.301411390605	953.2133907259083	1144.040212986262	2195.95408700283	48.59979248750138	995.0026673301745	2163.122408717953	41.53573420776406	1089.887449925817	2103.34808294064	942.8082108608811	1035.508691570868	2100.279625391929	154.9514649613002	1079.311733411382	2064.597327150058	182.7179876456272	1049.043934399791	2133.085297678659	225.9918559043328	1102.503058212531	2099.410307690199	252.1267060334941	1068.978311928068	2242.681126182703	533.41346382362	1144.173856300496	2186.511865843636	522.2595184093993	1097.655382086717	2203.529153602684	635.3463873848141	1163.98499386199	2148.647784388196	623.1714389220301	1121.512883591555	
